<?xml version="1.0" encoding="UTF-8" standalone="no"?>
<!DOCTYPE svg PUBLIC "-//W3C//DTD SVG 1.1//EN" "http://www.w3.org/Graphics/SVG/1.1/DTD/svg11.dtd">
<svg xmlns="http://www.w3.org/2000/svg" xmlns:xlink="http://www.w3.org/1999/xlink" version="1.1" width="841.92007pt" height="595.32pt" viewBox="0 0 841.92007 595.32">
<g enable-background="new">
<path transform="matrix(.75,0,0,.75,3,425.76)" d="M 0 0 L 11.84 -6.24 L 24 -11.84 L 36.32 -16.96 L 48.96 -21.6 L 61.76 -25.6 L 74.56 -29.12 L 87.68 -32 L 100.8 -34.4 L 114.08 -36.32 L 127.52 -37.6 L 140.8 -38.24 L 154.24 -38.4 L 167.52 -37.92 L 180.96 -36.96 L 194.24 -35.36 L 205.92 -33.92 L 217.6 -32.96 L 225.6 -32.64 L 233.76 -32.64 L 241.76 -33.28 L 251.68 -34.56 L 261.6 -36.32 L 271.36 -38.56 L 274.24 -81.12 L 216.8 -66.56 L 250.4 -129.44 L 229.6 -127.04 L 257.6 -184.48 L 246.72 -177.76 L 263.68 -227.84 L 253.28 -221.76 L 263.36 -272.96 L 295.52 -226.08 L 284 -229.92 L 310.72 -184.16 L 298.56 -188.64 L 332.96 -128.96 L 312 -134.72 L 343.04 -64.96 L 290.88 -80.32 L 294.72 -38.88 L 301.76 -40.8 L 309.12 -42.08 L 316.32 -42.88 L 323.68 -43.04 L 331.04 -42.72 L 338.24 -41.92 L 345.44 -40.48 L 352.48 -38.56 L 356.48 -37.6 L 360.32 -36.32 L 369.28 -408.48 L 371.04 -408.48 L 371.04 -444.16 L 368.16 -444.16 L 368.16 -447.84 L 364.8 -447.84 L 364.8 -452 L 411.2 -548 L 457.76 -452 L 457.76 -447.84 L 454.4 -447.84 L 454.4 -444.16 L 451.52 -444.16 L 451.52 -411.2 L 458.4 -411.2 L 458.4 -418.88 L 466.08 -418.88 L 466.08 -411.2 L 473.12 -411.2 L 473.12 -418.88 L 480.8 -418.88 L 480.8 -411.2 L 487.84 -411.2 L 487.84 -418.88 L 495.52 -418.88 L 495.52 -411.2 L 502.56 -411.2 L 502.56 -418.88 L 510.24 -418.88 L 510.24 -411.2 L 517.12 -411.2 L 517.12 -418.88 L 524.96 -418.88 L 524.96 -411.2 L 531.84 -411.2 L 531.84 -418.88 L 539.52 -418.88 L 539.52 -411.2 L 546.56 -411.2 L 546.56 -418.88 L 554.24 -418.88 L 554.24 -411.2 L 561.28 -411.2 L 561.28 -418.88 L 568.96 -418.88 L 568.96 -411.2 L 575.84 -411.2 L 575.84 -418.88 L 583.68 -418.88 L 583.68 -411.2 L 590.56 -411.2 L 590.56 -452 L 583.68 -452 L 583.68 -462.88 L 681.92 -503.04 L 780.32 -462.88 L 780.32 -452 L 774.88 -452 L 774.88 -229.92 L 780.96 -229.92 L 780.96 -224.8 L 768.64 -207.2 L 775.36 -36.8 L 783.52 -39.52 L 791.68 -41.6 L 800.16 -43.2 L 808.64 -44 L 817.12 -44.32 L 825.6 -44 L 834.08 -42.88 L 842.4 -41.28 L 850.72 -39.2 L 855.2 -89.12 L 792.48 -70.56 L 829.92 -154.72 L 804.64 -147.84 L 845.92 -219.68 L 831.36 -214.4 L 863.52 -269.44 L 849.76 -264.96 L 888.64 -321.44 L 900.8 -259.68 L 888.16 -267.04 L 908.64 -206.56 L 895.52 -214.72 L 929.28 -145.6 L 904.16 -148.32 L 944.48 -72.64 L 875.36 -90.08 L 878.88 -38.88 L 887.68 -36.64 L 896.64 -34.88 L 905.6 -33.44 L 914.56 -32.48 L 924.16 -31.68 L 933.92 -31.52 L 943.68 -32 L 957.76 -33.28 L 971.84 -35.04 L 986.08 -36.8 L 1000.48 -37.92 L 1014.88 -38.56 L 1029.28 -38.56 L 1043.68 -38.08 L 1058.08 -37.12 L 1072.32 -35.52 L 1086.56 -33.44 L 1100.8 -30.88 L 1114.72 -27.68 L 1114.72 206.56 L 0 206.56 L 0 0 Z " fill-rule="evenodd"/>
<path transform="matrix(.75,0,0,.75,0,0)" stroke-width=".5" stroke-linecap="round" stroke-linejoin="round" fill="none" stroke="#000000" d="M 4 567.68 L 4 774.24 "/>
<path transform="matrix(.75,0,0,.75,0,0)" stroke-width=".5" stroke-linecap="round" stroke-linejoin="round" fill="none" stroke="#000000" d="M 4 774.24 L 1118.72 774.24 "/>
<path transform="matrix(.75,0,0,.75,0,0)" stroke-width=".5" stroke-linecap="round" stroke-linejoin="round" fill="none" stroke="#000000" d="M 1118.72 774.24 L 1118.72 540 "/>
<path transform="matrix(.75,0,0,.75,0,0)" stroke-width=".5" stroke-linecap="round" stroke-linejoin="round" fill="none" stroke="#000000" d="M 1118.72 540 L 1104.8 536.8 "/>
<path transform="matrix(.75,0,0,.75,0,0)" stroke-width=".5" stroke-linecap="round" stroke-linejoin="round" fill="none" stroke="#000000" d="M 1104.8 536.8 L 1090.56 534.24 "/>
<path transform="matrix(.75,0,0,.75,0,0)" stroke-width=".5" stroke-linecap="round" stroke-linejoin="round" fill="none" stroke="#000000" d="M 1090.56 534.24 L 1076.32 532.16 "/>
<path transform="matrix(.75,0,0,.75,0,0)" stroke-width=".5" stroke-linecap="round" stroke-linejoin="round" fill="none" stroke="#000000" d="M 1076.32 532.16 L 1062.08 530.56 "/>
<path transform="matrix(.75,0,0,.75,0,0)" stroke-width=".5" stroke-linecap="round" stroke-linejoin="round" fill="none" stroke="#000000" d="M 1062.08 530.56 L 1047.68 529.6 "/>
<path transform="matrix(.75,0,0,.75,0,0)" stroke-width=".5" stroke-linecap="round" stroke-linejoin="round" fill="none" stroke="#000000" d="M 1047.68 529.6 L 1033.28 529.12 "/>
<path transform="matrix(.75,0,0,.75,0,0)" stroke-width=".5" stroke-linecap="round" stroke-linejoin="round" fill="none" stroke="#000000" d="M 1033.28 529.12 L 1018.88 529.12 "/>
<path transform="matrix(.75,0,0,.75,0,0)" stroke-width=".5" stroke-linecap="round" stroke-linejoin="round" fill="none" stroke="#000000" d="M 1018.88 529.12 L 1004.48 529.76 "/>
<path transform="matrix(.75,0,0,.75,0,0)" stroke-width=".5" stroke-linecap="round" stroke-linejoin="round" fill="none" stroke="#000000" d="M 1004.48 529.76 L 990.08 530.88 "/>
<path transform="matrix(.75,0,0,.75,0,0)" stroke-width=".5" stroke-linecap="round" stroke-linejoin="round" fill="none" stroke="#000000" d="M 990.08 530.88 L 975.84 532.64 "/>
<path transform="matrix(.75,0,0,.75,0,0)" stroke-width=".5" stroke-linecap="round" stroke-linejoin="round" fill="none" stroke="#000000" d="M 975.84 532.64 L 961.76 534.4 "/>
<path transform="matrix(.75,0,0,.75,0,0)" stroke-width=".5" stroke-linecap="round" stroke-linejoin="round" fill="none" stroke="#000000" d="M 961.76 534.4 L 947.68 535.68 "/>
<path transform="matrix(.75,0,0,.75,0,0)" stroke-width=".5" stroke-linecap="round" stroke-linejoin="round" fill="none" stroke="#000000" d="M 947.68 535.68 L 937.92 536.16 "/>
<path transform="matrix(.75,0,0,.75,0,0)" stroke-width=".5" stroke-linecap="round" stroke-linejoin="round" fill="none" stroke="#000000" d="M 937.92 536.16 L 928.16 536 "/>
<path transform="matrix(.75,0,0,.75,0,0)" stroke-width=".5" stroke-linecap="round" stroke-linejoin="round" fill="none" stroke="#000000" d="M 928.16 536 L 918.56 535.2 "/>
<path transform="matrix(.75,0,0,.75,0,0)" stroke-width=".5" stroke-linecap="round" stroke-linejoin="round" fill="none" stroke="#000000" d="M 918.56 535.2 L 909.6 534.24 "/>
<path transform="matrix(.75,0,0,.75,0,0)" stroke-width=".5" stroke-linecap="round" stroke-linejoin="round" fill="none" stroke="#000000" d="M 909.6 534.24 L 900.64 532.8 "/>
<path transform="matrix(.75,0,0,.75,0,0)" stroke-width=".5" stroke-linecap="round" stroke-linejoin="round" fill="none" stroke="#000000" d="M 900.64 532.8 L 891.68 531.04 "/>
<path transform="matrix(.75,0,0,.75,0,0)" stroke-width=".5" stroke-linecap="round" stroke-linejoin="round" fill="none" stroke="#000000" d="M 891.68 531.04 L 882.88 528.8 "/>
<path transform="matrix(.75,0,0,.75,0,0)" stroke-width=".5" stroke-linecap="round" stroke-linejoin="round" fill="none" stroke="#000000" d="M 882.88 528.8 L 879.36 477.6 "/>
<path transform="matrix(.75,0,0,.75,0,0)" stroke-width=".5" stroke-linecap="round" stroke-linejoin="round" fill="none" stroke="#000000" d="M 879.36 477.6 L 948.48 495.04 "/>
<path transform="matrix(.75,0,0,.75,0,0)" stroke-width=".5" stroke-linecap="round" stroke-linejoin="round" fill="none" stroke="#000000" d="M 948.48 495.04 L 908.16 419.36 "/>
<path transform="matrix(.75,0,0,.75,0,0)" stroke-width=".5" stroke-linecap="round" stroke-linejoin="round" fill="none" stroke="#000000" d="M 908.16 419.36 L 933.28 422.08 "/>
<path transform="matrix(.75,0,0,.75,0,0)" stroke-width=".5" stroke-linecap="round" stroke-linejoin="round" fill="none" stroke="#000000" d="M 933.28 422.08 L 899.52 352.96 "/>
<path transform="matrix(.75,0,0,.75,0,0)" stroke-width=".5" stroke-linecap="round" stroke-linejoin="round" fill="none" stroke="#000000" d="M 899.52 352.96 L 912.64 361.12 "/>
<path transform="matrix(.75,0,0,.75,0,0)" stroke-width=".5" stroke-linecap="round" stroke-linejoin="round" fill="none" stroke="#000000" d="M 912.64 361.12 L 892.16 300.64 "/>
<path transform="matrix(.75,0,0,.75,0,0)" stroke-width=".5" stroke-linecap="round" stroke-linejoin="round" fill="none" stroke="#000000" d="M 892.16 300.64 L 904.8 308 "/>
<path transform="matrix(.75,0,0,.75,0,0)" stroke-width=".5" stroke-linecap="round" stroke-linejoin="round" fill="none" stroke="#000000" d="M 904.8 308 L 892.64 246.24 "/>
<path transform="matrix(.75,0,0,.75,0,0)" stroke-width=".5" stroke-linecap="round" stroke-linejoin="round" fill="none" stroke="#000000" d="M 892.64 246.24 L 853.76 302.72 "/>
<path transform="matrix(.75,0,0,.75,0,0)" stroke-width=".5" stroke-linecap="round" stroke-linejoin="round" fill="none" stroke="#000000" d="M 853.76 302.72 L 867.52 298.24 "/>
<path transform="matrix(.75,0,0,.75,0,0)" stroke-width=".5" stroke-linecap="round" stroke-linejoin="round" fill="none" stroke="#000000" d="M 867.52 298.24 L 835.36 353.28 "/>
<path transform="matrix(.75,0,0,.75,0,0)" stroke-width=".5" stroke-linecap="round" stroke-linejoin="round" fill="none" stroke="#000000" d="M 835.36 353.28 L 849.92 348 "/>
<path transform="matrix(.75,0,0,.75,0,0)" stroke-width=".5" stroke-linecap="round" stroke-linejoin="round" fill="none" stroke="#000000" d="M 849.92 348 L 808.64 419.84 "/>
<path transform="matrix(.75,0,0,.75,0,0)" stroke-width=".5" stroke-linecap="round" stroke-linejoin="round" fill="none" stroke="#000000" d="M 808.64 419.84 L 833.92 412.96 "/>
<path transform="matrix(.75,0,0,.75,0,0)" stroke-width=".5" stroke-linecap="round" stroke-linejoin="round" fill="none" stroke="#000000" d="M 833.92 412.96 L 796.48 497.12 "/>
<path transform="matrix(.75,0,0,.75,0,0)" stroke-width=".5" stroke-linecap="round" stroke-linejoin="round" fill="none" stroke="#000000" d="M 796.48 497.12 L 859.2 478.56 "/>
<path transform="matrix(.75,0,0,.75,0,0)" stroke-width=".5" stroke-linecap="round" stroke-linejoin="round" fill="none" stroke="#000000" d="M 859.2 478.56 L 854.72 528.48 "/>
<path transform="matrix(.75,0,0,.75,0,0)" stroke-width=".5" stroke-linecap="round" stroke-linejoin="round" fill="none" stroke="#000000" d="M 854.72 528.48 L 846.4 526.4 "/>
<path transform="matrix(.75,0,0,.75,0,0)" stroke-width=".5" stroke-linecap="round" stroke-linejoin="round" fill="none" stroke="#000000" d="M 846.4 526.4 L 838.08 524.8 "/>
<path transform="matrix(.75,0,0,.75,0,0)" stroke-width=".5" stroke-linecap="round" stroke-linejoin="round" fill="none" stroke="#000000" d="M 838.08 524.8 L 829.6 523.68 "/>
<path transform="matrix(.75,0,0,.75,0,0)" stroke-width=".5" stroke-linecap="round" stroke-linejoin="round" fill="none" stroke="#000000" d="M 829.6 523.68 L 821.12 523.36 "/>
<path transform="matrix(.75,0,0,.75,0,0)" stroke-width=".5" stroke-linecap="round" stroke-linejoin="round" fill="none" stroke="#000000" d="M 821.12 523.36 L 812.64 523.68 "/>
<path transform="matrix(.75,0,0,.75,0,0)" stroke-width=".5" stroke-linecap="round" stroke-linejoin="round" fill="none" stroke="#000000" d="M 812.64 523.68 L 804.16 524.48 "/>
<path transform="matrix(.75,0,0,.75,0,0)" stroke-width=".5" stroke-linecap="round" stroke-linejoin="round" fill="none" stroke="#000000" d="M 804.16 524.48 L 795.68 526.08 "/>
<path transform="matrix(.75,0,0,.75,0,0)" stroke-width=".5" stroke-linecap="round" stroke-linejoin="round" fill="none" stroke="#000000" d="M 795.68 526.08 L 787.52 528.16 "/>
<path transform="matrix(.75,0,0,.75,0,0)" stroke-width=".5" stroke-linecap="round" stroke-linejoin="round" fill="none" stroke="#000000" d="M 787.52 528.16 L 779.36 530.88 "/>
<path transform="matrix(.75,0,0,.75,0,0)" stroke-width=".5" stroke-linecap="round" stroke-linejoin="round" fill="none" stroke="#000000" d="M 779.36 530.88 L 772.64 360.48 "/>
<path transform="matrix(.75,0,0,.75,0,0)" stroke-width=".5" stroke-linecap="round" stroke-linejoin="round" fill="none" stroke="#000000" d="M 772.64 360.48 L 784.96 342.88 "/>
<path transform="matrix(.75,0,0,.75,0,0)" stroke-width=".5" stroke-linecap="round" stroke-linejoin="round" fill="none" stroke="#000000" d="M 784.96 342.88 L 784.96 337.76 "/>
<path transform="matrix(.75,0,0,.75,0,0)" stroke-width=".5" stroke-linecap="round" stroke-linejoin="round" fill="none" stroke="#000000" d="M 784.96 337.76 L 778.88 337.76 "/>
<path transform="matrix(.75,0,0,.75,0,0)" stroke-width=".5" stroke-linecap="round" stroke-linejoin="round" fill="none" stroke="#000000" d="M 778.88 337.76 L 778.88 115.68 "/>
<path transform="matrix(.75,0,0,.75,0,0)" stroke-width=".5" stroke-linecap="round" stroke-linejoin="round" fill="none" stroke="#000000" d="M 778.88 115.68 L 784.32 115.68 "/>
<path transform="matrix(.75,0,0,.75,0,0)" stroke-width=".5" stroke-linecap="round" stroke-linejoin="round" fill="none" stroke="#000000" d="M 784.32 115.68 L 784.32 104.8 "/>
<path transform="matrix(.75,0,0,.75,0,0)" stroke-width=".5" stroke-linecap="round" stroke-linejoin="round" fill="none" stroke="#000000" d="M 784.32 104.8 L 685.92 64.64 "/>
<path transform="matrix(.75,0,0,.75,0,0)" stroke-width=".5" stroke-linecap="round" stroke-linejoin="round" fill="none" stroke="#000000" d="M 685.92 64.64 L 587.68 104.8 "/>
<path transform="matrix(.75,0,0,.75,0,0)" stroke-width=".5" stroke-linecap="round" stroke-linejoin="round" fill="none" stroke="#000000" d="M 587.68 104.8 L 587.68 115.68 "/>
<path transform="matrix(.75,0,0,.75,0,0)" stroke-width=".5" stroke-linecap="round" stroke-linejoin="round" fill="none" stroke="#000000" d="M 587.68 115.68 L 594.56 115.68 "/>
<path transform="matrix(.75,0,0,.75,0,0)" stroke-width=".5" stroke-linecap="round" stroke-linejoin="round" fill="none" stroke="#000000" d="M 594.56 115.68 L 594.56 156.48 "/>
<path transform="matrix(.75,0,0,.75,0,0)" stroke-width=".5" stroke-linecap="round" stroke-linejoin="round" fill="none" stroke="#000000" d="M 594.56 156.48 L 587.68 156.48 "/>
<path transform="matrix(.75,0,0,.75,0,0)" stroke-width=".5" stroke-linecap="round" stroke-linejoin="round" fill="none" stroke="#000000" d="M 587.68 156.48 L 587.68 148.8 "/>
<path transform="matrix(.75,0,0,.75,0,0)" stroke-width=".5" stroke-linecap="round" stroke-linejoin="round" fill="none" stroke="#000000" d="M 587.68 148.8 L 579.84 148.8 "/>
<path transform="matrix(.75,0,0,.75,0,0)" stroke-width=".5" stroke-linecap="round" stroke-linejoin="round" fill="none" stroke="#000000" d="M 579.84 148.8 L 579.84 156.48 "/>
<path transform="matrix(.75,0,0,.75,0,0)" stroke-width=".5" stroke-linecap="round" stroke-linejoin="round" fill="none" stroke="#000000" d="M 579.84 156.48 L 572.96 156.48 "/>
<path transform="matrix(.75,0,0,.75,0,0)" stroke-width=".5" stroke-linecap="round" stroke-linejoin="round" fill="none" stroke="#000000" d="M 572.96 156.48 L 572.96 148.8 "/>
<path transform="matrix(.75,0,0,.75,0,0)" stroke-width=".5" stroke-linecap="round" stroke-linejoin="round" fill="none" stroke="#000000" d="M 572.96 148.8 L 565.28 148.8 "/>
<path transform="matrix(.75,0,0,.75,0,0)" stroke-width=".5" stroke-linecap="round" stroke-linejoin="round" fill="none" stroke="#000000" d="M 565.28 148.8 L 565.28 156.48 "/>
<path transform="matrix(.75,0,0,.75,0,0)" stroke-width=".5" stroke-linecap="round" stroke-linejoin="round" fill="none" stroke="#000000" d="M 565.28 156.48 L 558.24 156.48 "/>
<path transform="matrix(.75,0,0,.75,0,0)" stroke-width=".5" stroke-linecap="round" stroke-linejoin="round" fill="none" stroke="#000000" d="M 558.24 156.48 L 558.24 148.8 "/>
<path transform="matrix(.75,0,0,.75,0,0)" stroke-width=".5" stroke-linecap="round" stroke-linejoin="round" fill="none" stroke="#000000" d="M 558.24 148.8 L 550.56 148.8 "/>
<path transform="matrix(.75,0,0,.75,0,0)" stroke-width=".5" stroke-linecap="round" stroke-linejoin="round" fill="none" stroke="#000000" d="M 550.56 148.8 L 550.56 156.48 "/>
<path transform="matrix(.75,0,0,.75,0,0)" stroke-width=".5" stroke-linecap="round" stroke-linejoin="round" fill="none" stroke="#000000" d="M 550.56 156.48 L 543.52 156.48 "/>
<path transform="matrix(.75,0,0,.75,0,0)" stroke-width=".5" stroke-linecap="round" stroke-linejoin="round" fill="none" stroke="#000000" d="M 543.52 156.48 L 543.52 148.8 "/>
<path transform="matrix(.75,0,0,.75,0,0)" stroke-width=".5" stroke-linecap="round" stroke-linejoin="round" fill="none" stroke="#000000" d="M 543.52 148.8 L 535.84 148.8 "/>
<path transform="matrix(.75,0,0,.75,0,0)" stroke-width=".5" stroke-linecap="round" stroke-linejoin="round" fill="none" stroke="#000000" d="M 535.84 148.8 L 535.84 156.48 "/>
<path transform="matrix(.75,0,0,.75,0,0)" stroke-width=".5" stroke-linecap="round" stroke-linejoin="round" fill="none" stroke="#000000" d="M 535.84 156.48 L 528.96 156.48 "/>
<path transform="matrix(.75,0,0,.75,0,0)" stroke-width=".5" stroke-linecap="round" stroke-linejoin="round" fill="none" stroke="#000000" d="M 528.96 156.48 L 528.96 148.8 "/>
<path transform="matrix(.75,0,0,.75,0,0)" stroke-width=".5" stroke-linecap="round" stroke-linejoin="round" fill="none" stroke="#000000" d="M 528.96 148.8 L 521.12 148.8 "/>
<path transform="matrix(.75,0,0,.75,0,0)" stroke-width=".5" stroke-linecap="round" stroke-linejoin="round" fill="none" stroke="#000000" d="M 521.12 148.8 L 521.12 156.48 "/>
<path transform="matrix(.75,0,0,.75,0,0)" stroke-width=".5" stroke-linecap="round" stroke-linejoin="round" fill="none" stroke="#000000" d="M 521.12 156.48 L 514.24 156.48 "/>
<path transform="matrix(.75,0,0,.75,0,0)" stroke-width=".5" stroke-linecap="round" stroke-linejoin="round" fill="none" stroke="#000000" d="M 514.24 156.48 L 514.24 148.8 "/>
<path transform="matrix(.75,0,0,.75,0,0)" stroke-width=".5" stroke-linecap="round" stroke-linejoin="round" fill="none" stroke="#000000" d="M 514.24 148.8 L 506.56 148.8 "/>
<path transform="matrix(.75,0,0,.75,0,0)" stroke-width=".5" stroke-linecap="round" stroke-linejoin="round" fill="none" stroke="#000000" d="M 506.56 148.8 L 506.56 156.48 "/>
<path transform="matrix(.75,0,0,.75,0,0)" stroke-width=".5" stroke-linecap="round" stroke-linejoin="round" fill="none" stroke="#000000" d="M 506.56 156.48 L 499.52 156.48 "/>
<path transform="matrix(.75,0,0,.75,0,0)" stroke-width=".5" stroke-linecap="round" stroke-linejoin="round" fill="none" stroke="#000000" d="M 499.52 156.48 L 499.52 148.8 "/>
<path transform="matrix(.75,0,0,.75,0,0)" stroke-width=".5" stroke-linecap="round" stroke-linejoin="round" fill="none" stroke="#000000" d="M 499.52 148.8 L 491.84 148.8 "/>
<path transform="matrix(.75,0,0,.75,0,0)" stroke-width=".5" stroke-linecap="round" stroke-linejoin="round" fill="none" stroke="#000000" d="M 491.84 148.8 L 491.84 156.48 "/>
<path transform="matrix(.75,0,0,.75,0,0)" stroke-width=".5" stroke-linecap="round" stroke-linejoin="round" fill="none" stroke="#000000" d="M 491.84 156.48 L 484.8 156.48 "/>
<path transform="matrix(.75,0,0,.75,0,0)" stroke-width=".5" stroke-linecap="round" stroke-linejoin="round" fill="none" stroke="#000000" d="M 484.8 156.48 L 484.8 148.8 "/>
<path transform="matrix(.75,0,0,.75,0,0)" stroke-width=".5" stroke-linecap="round" stroke-linejoin="round" fill="none" stroke="#000000" d="M 484.8 148.8 L 477.12 148.8 "/>
<path transform="matrix(.75,0,0,.75,0,0)" stroke-width=".5" stroke-linecap="round" stroke-linejoin="round" fill="none" stroke="#000000" d="M 477.12 148.8 L 477.12 156.48 "/>
<path transform="matrix(.75,0,0,.75,0,0)" stroke-width=".5" stroke-linecap="round" stroke-linejoin="round" fill="none" stroke="#000000" d="M 477.12 156.48 L 470.08 156.48 "/>
<path transform="matrix(.75,0,0,.75,0,0)" stroke-width=".5" stroke-linecap="round" stroke-linejoin="round" fill="none" stroke="#000000" d="M 470.08 156.48 L 470.08 148.8 "/>
<path transform="matrix(.75,0,0,.75,0,0)" stroke-width=".5" stroke-linecap="round" stroke-linejoin="round" fill="none" stroke="#000000" d="M 470.08 148.8 L 462.4 148.8 "/>
<path transform="matrix(.75,0,0,.75,0,0)" stroke-width=".5" stroke-linecap="round" stroke-linejoin="round" fill="none" stroke="#000000" d="M 462.4 148.8 L 462.4 156.48 "/>
<path transform="matrix(.75,0,0,.75,0,0)" stroke-width=".5" stroke-linecap="round" stroke-linejoin="round" fill="none" stroke="#000000" d="M 462.4 156.48 L 455.52 156.48 "/>
<path transform="matrix(.75,0,0,.75,0,0)" stroke-width=".5" stroke-linecap="round" stroke-linejoin="round" fill="none" stroke="#000000" d="M 455.52 156.48 L 455.52 123.52 "/>
<path transform="matrix(.75,0,0,.75,0,0)" stroke-width=".5" stroke-linecap="round" stroke-linejoin="round" fill="none" stroke="#000000" d="M 455.52 123.52 L 458.4 123.52 "/>
<path transform="matrix(.75,0,0,.75,0,0)" stroke-width=".5" stroke-linecap="round" stroke-linejoin="round" fill="none" stroke="#000000" d="M 458.4 123.52 L 458.4 119.84 "/>
<path transform="matrix(.75,0,0,.75,0,0)" stroke-width=".5" stroke-linecap="round" stroke-linejoin="round" fill="none" stroke="#000000" d="M 458.4 119.84 L 461.76 119.84 "/>
<path transform="matrix(.75,0,0,.75,0,0)" stroke-width=".5" stroke-linecap="round" stroke-linejoin="round" fill="none" stroke="#000000" d="M 461.76 119.84 L 461.76 115.68 "/>
<path transform="matrix(.75,0,0,.75,0,0)" stroke-width=".5" stroke-linecap="round" stroke-linejoin="round" fill="none" stroke="#000000" d="M 461.76 115.68 L 415.2 19.68 "/>
<path transform="matrix(.75,0,0,.75,0,0)" stroke-width=".5" stroke-linecap="round" stroke-linejoin="round" fill="none" stroke="#000000" d="M 415.2 19.68 L 368.8 115.68 "/>
<path transform="matrix(.75,0,0,.75,0,0)" stroke-width=".5" stroke-linecap="round" stroke-linejoin="round" fill="none" stroke="#000000" d="M 368.8 115.68 L 368.8 119.84 "/>
<path transform="matrix(.75,0,0,.75,0,0)" stroke-width=".5" stroke-linecap="round" stroke-linejoin="round" fill="none" stroke="#000000" d="M 368.8 119.84 L 372.16 119.84 "/>
<path transform="matrix(.75,0,0,.75,0,0)" stroke-width=".5" stroke-linecap="round" stroke-linejoin="round" fill="none" stroke="#000000" d="M 372.16 119.84 L 372.16 123.52 "/>
<path transform="matrix(.75,0,0,.75,0,0)" stroke-width=".5" stroke-linecap="round" stroke-linejoin="round" fill="none" stroke="#000000" d="M 372.16 123.52 L 375.04 123.52 "/>
<path transform="matrix(.75,0,0,.75,0,0)" stroke-width=".5" stroke-linecap="round" stroke-linejoin="round" fill="none" stroke="#000000" d="M 375.04 123.52 L 375.04 159.2 "/>
<path transform="matrix(.75,0,0,.75,0,0)" stroke-width=".5" stroke-linecap="round" stroke-linejoin="round" fill="none" stroke="#000000" d="M 375.04 159.2 L 373.28 159.2 "/>
<path transform="matrix(.75,0,0,.75,0,0)" stroke-width=".5" stroke-linecap="round" stroke-linejoin="round" fill="none" stroke="#000000" d="M 373.28 159.2 L 364.32 531.36 "/>
<path transform="matrix(.75,0,0,.75,0,0)" stroke-width=".5" stroke-linecap="round" stroke-linejoin="round" fill="none" stroke="#000000" d="M 364.32 531.36 L 360.48 530.08 "/>
<path transform="matrix(.75,0,0,.75,0,0)" stroke-width=".5" stroke-linecap="round" stroke-linejoin="round" fill="none" stroke="#000000" d="M 360.48 530.08 L 356.48 529.12 "/>
<path transform="matrix(.75,0,0,.75,0,0)" stroke-width=".5" stroke-linecap="round" stroke-linejoin="round" fill="none" stroke="#000000" d="M 356.48 529.12 L 349.44 527.2 "/>
<path transform="matrix(.75,0,0,.75,0,0)" stroke-width=".5" stroke-linecap="round" stroke-linejoin="round" fill="none" stroke="#000000" d="M 349.44 527.2 L 342.24 525.76 "/>
<path transform="matrix(.75,0,0,.75,0,0)" stroke-width=".5" stroke-linecap="round" stroke-linejoin="round" fill="none" stroke="#000000" d="M 342.24 525.76 L 335.04 524.96 "/>
<path transform="matrix(.75,0,0,.75,0,0)" stroke-width=".5" stroke-linecap="round" stroke-linejoin="round" fill="none" stroke="#000000" d="M 335.04 524.96 L 327.68 524.64 "/>
<path transform="matrix(.75,0,0,.75,0,0)" stroke-width=".5" stroke-linecap="round" stroke-linejoin="round" fill="none" stroke="#000000" d="M 327.68 524.64 L 320.32 524.8 "/>
<path transform="matrix(.75,0,0,.75,0,0)" stroke-width=".5" stroke-linecap="round" stroke-linejoin="round" fill="none" stroke="#000000" d="M 320.32 524.8 L 313.12 525.6 "/>
<path transform="matrix(.75,0,0,.75,0,0)" stroke-width=".5" stroke-linecap="round" stroke-linejoin="round" fill="none" stroke="#000000" d="M 313.12 525.6 L 305.76 526.88 "/>
<path transform="matrix(.75,0,0,.75,0,0)" stroke-width=".5" stroke-linecap="round" stroke-linejoin="round" fill="none" stroke="#000000" d="M 305.76 526.88 L 298.72 528.8 "/>
<path transform="matrix(.75,0,0,.75,0,0)" stroke-width=".5" stroke-linecap="round" stroke-linejoin="round" fill="none" stroke="#000000" d="M 298.72 528.8 L 294.88 487.36 "/>
<path transform="matrix(.75,0,0,.75,0,0)" stroke-width=".5" stroke-linecap="round" stroke-linejoin="round" fill="none" stroke="#000000" d="M 294.88 487.36 L 347.04 502.72 "/>
<path transform="matrix(.75,0,0,.75,0,0)" stroke-width=".5" stroke-linecap="round" stroke-linejoin="round" fill="none" stroke="#000000" d="M 347.04 502.72 L 316 432.96 "/>
<path transform="matrix(.75,0,0,.75,0,0)" stroke-width=".5" stroke-linecap="round" stroke-linejoin="round" fill="none" stroke="#000000" d="M 316 432.96 L 336.96 438.72 "/>
<path transform="matrix(.75,0,0,.75,0,0)" stroke-width=".5" stroke-linecap="round" stroke-linejoin="round" fill="none" stroke="#000000" d="M 336.96 438.72 L 302.56 379.04 "/>
<path transform="matrix(.75,0,0,.75,0,0)" stroke-width=".5" stroke-linecap="round" stroke-linejoin="round" fill="none" stroke="#000000" d="M 302.56 379.04 L 314.72 383.52 "/>
<path transform="matrix(.75,0,0,.75,0,0)" stroke-width=".5" stroke-linecap="round" stroke-linejoin="round" fill="none" stroke="#000000" d="M 314.72 383.52 L 288 337.76 "/>
<path transform="matrix(.75,0,0,.75,0,0)" stroke-width=".5" stroke-linecap="round" stroke-linejoin="round" fill="none" stroke="#000000" d="M 288 337.76 L 299.52 341.6 "/>
<path transform="matrix(.75,0,0,.75,0,0)" stroke-width=".5" stroke-linecap="round" stroke-linejoin="round" fill="none" stroke="#000000" d="M 299.52 341.6 L 267.36 294.72 "/>
<path transform="matrix(.75,0,0,.75,0,0)" stroke-width=".5" stroke-linecap="round" stroke-linejoin="round" fill="none" stroke="#000000" d="M 267.36 294.72 L 257.28 345.92 "/>
<path transform="matrix(.75,0,0,.75,0,0)" stroke-width=".5" stroke-linecap="round" stroke-linejoin="round" fill="none" stroke="#000000" d="M 257.28 345.92 L 267.68 339.84 "/>
<path transform="matrix(.75,0,0,.75,0,0)" stroke-width=".5" stroke-linecap="round" stroke-linejoin="round" fill="none" stroke="#000000" d="M 267.68 339.84 L 250.72 389.92 "/>
<path transform="matrix(.75,0,0,.75,0,0)" stroke-width=".5" stroke-linecap="round" stroke-linejoin="round" fill="none" stroke="#000000" d="M 250.72 389.92 L 261.6 383.2 "/>
<path transform="matrix(.75,0,0,.75,0,0)" stroke-width=".5" stroke-linecap="round" stroke-linejoin="round" fill="none" stroke="#000000" d="M 261.6 383.2 L 233.6 440.64 "/>
<path transform="matrix(.75,0,0,.75,0,0)" stroke-width=".5" stroke-linecap="round" stroke-linejoin="round" fill="none" stroke="#000000" d="M 233.6 440.64 L 254.4 438.24 "/>
<path transform="matrix(.75,0,0,.75,0,0)" stroke-width=".5" stroke-linecap="round" stroke-linejoin="round" fill="none" stroke="#000000" d="M 254.4 438.24 L 220.8 501.12 "/>
<path transform="matrix(.75,0,0,.75,0,0)" stroke-width=".5" stroke-linecap="round" stroke-linejoin="round" fill="none" stroke="#000000" d="M 220.8 501.12 L 278.24 486.56 "/>
<path transform="matrix(.75,0,0,.75,0,0)" stroke-width=".5" stroke-linecap="round" stroke-linejoin="round" fill="none" stroke="#000000" d="M 278.24 486.56 L 275.36 529.12 "/>
<path transform="matrix(.75,0,0,.75,0,0)" stroke-width=".5" stroke-linecap="round" stroke-linejoin="round" fill="none" stroke="#000000" d="M 275.36 529.12 L 265.6 531.36 "/>
<path transform="matrix(.75,0,0,.75,0,0)" stroke-width=".5" stroke-linecap="round" stroke-linejoin="round" fill="none" stroke="#000000" d="M 265.6 531.36 L 255.68 533.12 "/>
<path transform="matrix(.75,0,0,.75,0,0)" stroke-width=".5" stroke-linecap="round" stroke-linejoin="round" fill="none" stroke="#000000" d="M 255.68 533.12 L 245.76 534.4 "/>
<path transform="matrix(.75,0,0,.75,0,0)" stroke-width=".5" stroke-linecap="round" stroke-linejoin="round" fill="none" stroke="#000000" d="M 245.76 534.4 L 237.76 535.04 "/>
<path transform="matrix(.75,0,0,.75,0,0)" stroke-width=".5" stroke-linecap="round" stroke-linejoin="round" fill="none" stroke="#000000" d="M 237.76 535.04 L 229.6 535.04 "/>
<path transform="matrix(.75,0,0,.75,0,0)" stroke-width=".5" stroke-linecap="round" stroke-linejoin="round" fill="none" stroke="#000000" d="M 229.6 535.04 L 221.6 534.72 "/>
<path transform="matrix(.75,0,0,.75,0,0)" stroke-width=".5" stroke-linecap="round" stroke-linejoin="round" fill="none" stroke="#000000" d="M 221.6 534.72 L 209.92 533.76 "/>
<path transform="matrix(.75,0,0,.75,0,0)" stroke-width=".5" stroke-linecap="round" stroke-linejoin="round" fill="none" stroke="#000000" d="M 209.92 533.76 L 198.24 532.32 "/>
<path transform="matrix(.75,0,0,.75,0,0)" stroke-width=".5" stroke-linecap="round" stroke-linejoin="round" fill="none" stroke="#000000" d="M 198.24 532.32 L 184.96 530.72 "/>
<path transform="matrix(.75,0,0,.75,0,0)" stroke-width=".5" stroke-linecap="round" stroke-linejoin="round" fill="none" stroke="#000000" d="M 184.96 530.72 L 171.52 529.76 "/>
<path transform="matrix(.75,0,0,.75,0,0)" stroke-width=".5" stroke-linecap="round" stroke-linejoin="round" fill="none" stroke="#000000" d="M 171.52 529.76 L 158.24 529.28 "/>
<path transform="matrix(.75,0,0,.75,0,0)" stroke-width=".5" stroke-linecap="round" stroke-linejoin="round" fill="none" stroke="#000000" d="M 158.24 529.28 L 144.8 529.44 "/>
<path transform="matrix(.75,0,0,.75,0,0)" stroke-width=".5" stroke-linecap="round" stroke-linejoin="round" fill="none" stroke="#000000" d="M 144.8 529.44 L 131.52 530.08 "/>
<path transform="matrix(.75,0,0,.75,0,0)" stroke-width=".5" stroke-linecap="round" stroke-linejoin="round" fill="none" stroke="#000000" d="M 131.52 530.08 L 118.08 531.36 "/>
<path transform="matrix(.75,0,0,.75,0,0)" stroke-width=".5" stroke-linecap="round" stroke-linejoin="round" fill="none" stroke="#000000" d="M 118.08 531.36 L 104.8 533.28 "/>
<path transform="matrix(.75,0,0,.75,0,0)" stroke-width=".5" stroke-linecap="round" stroke-linejoin="round" fill="none" stroke="#000000" d="M 104.8 533.28 L 91.68 535.68 "/>
<path transform="matrix(.75,0,0,.75,0,0)" stroke-width=".5" stroke-linecap="round" stroke-linejoin="round" fill="none" stroke="#000000" d="M 91.68 535.68 L 78.56 538.56 "/>
<path transform="matrix(.75,0,0,.75,0,0)" stroke-width=".5" stroke-linecap="round" stroke-linejoin="round" fill="none" stroke="#000000" d="M 78.56 538.56 L 65.76 542.08 "/>
<path transform="matrix(.75,0,0,.75,0,0)" stroke-width=".5" stroke-linecap="round" stroke-linejoin="round" fill="none" stroke="#000000" d="M 65.76 542.08 L 52.96 546.08 "/>
<path transform="matrix(.75,0,0,.75,0,0)" stroke-width=".5" stroke-linecap="round" stroke-linejoin="round" fill="none" stroke="#000000" d="M 52.96 546.08 L 40.32 550.72 "/>
<path transform="matrix(.75,0,0,.75,0,0)" stroke-width=".5" stroke-linecap="round" stroke-linejoin="round" fill="none" stroke="#000000" d="M 40.32 550.72 L 28 555.84 "/>
<path transform="matrix(.75,0,0,.75,0,0)" stroke-width=".5" stroke-linecap="round" stroke-linejoin="round" fill="none" stroke="#000000" d="M 28 555.84 L 15.84 561.44 "/>
<path transform="matrix(.75,0,0,.75,0,0)" stroke-width=".5" stroke-linecap="round" stroke-linejoin="round" fill="none" stroke="#000000" d="M 15.84 561.44 L 4 567.68 "/>
</g>
</svg>
